<svg width="83" height="118" viewBox="0 0 83 118" fill="none" xmlns="http://www.w3.org/2000/svg">
<g clip-path="url(#clip0_35_60)">
<path d="M83 23.1898L75.4385 108.509L41.4492 118L7.5535 108.522L0 23.1898H83Z" fill="#FCA311"/>
<path d="M68.965 103.076L75.4268 30.167H41.5V110.746L68.965 103.076Z" fill="#FFA000"/>
<path d="M17.3162 61.8156L18.2475 72.2812H41.4999V61.8156H17.3162Z" fill="#EBEBEB"/>
<path d="M41.5 40.6328H41.464H15.4449L16.3895 51.0986H41.5V40.6328Z" fill="#EBEBEB"/>
<path d="M41.5 99.8849V88.9962L41.4544 89.0084L29.8822 85.8611L29.1425 77.5143H23.5193H18.7118L20.1675 93.9469L41.4522 99.8983L41.5 99.8849Z" fill="#EBEBEB"/>
<path d="M54.259 72.2812L53.0529 85.8544L41.464 89.005V99.8932L62.7656 93.9469L62.9218 92.1787L65.3635 64.626L65.6171 61.8156L67.4929 40.6328H41.464V51.0986H56.1056L55.1601 61.8156H41.464V72.2812H54.259Z" fill="white"/>
</g>
<defs>
<clipPath id="clip0_35_60">
<rect width="83" height="118" fill="white"/>
</clipPath>
</defs>
</svg>
