<svg width="54" height="77" viewBox="0 0 54 77" fill="none" xmlns="http://www.w3.org/2000/svg">
<path d="M0.467285 61.8683L9.51371 2.43399C9.62429 1.70508 10.1764 1.13047 10.8848 1.00692C11.5931 0.88336 12.299 1.23883 12.6377 1.88938L21.9933 19.8054L25.7224 12.5154C26.0112 11.9518 26.5806 11.5988 27.2009 11.5988C27.8213 11.5988 28.3906 11.9518 28.6795 12.5154L53.9267 61.8682H0.467285V61.8683Z" fill="#FFA000"/>
<path d="M31.7203 38.7164L21.989 19.7969L0.467285 61.8684L31.7203 38.7164Z" fill="#F57C00"/>
<path d="M53.9271 61.8684L46.9982 17.8458C46.8935 17.2136 46.4541 16.6942 45.859 16.4985C45.2639 16.3027 44.6127 16.4657 44.1707 16.9189L0.467285 61.8677L24.6495 75.7915C26.1681 76.662 28.0175 76.662 29.536 75.7915L53.9271 61.8677V61.8684Z" fill="#FFCA28"/>
<path d="M46.9982 17.8458C46.8935 17.2136 46.4541 16.6942 45.859 16.4985C45.2639 16.3027 44.6126 16.4657 44.1707 16.9189L35.4966 25.8475L28.6757 12.5152C28.3869 11.9515 27.8175 11.5986 27.1971 11.5986C26.5768 11.5986 26.0075 11.9515 25.7186 12.5152L21.9895 19.8051L12.6335 1.88939C12.2942 1.23867 11.5875 0.88377 10.8783 1.00825C10.1691 1.13273 9.61883 1.70877 9.50948 2.43826L0.46727 61.8684H0.43811L0.46727 61.9027L0.705316 62.0227L44.1581 17.3569C44.5998 16.9012 45.2527 16.7374 45.8493 16.9326C46.446 17.1277 46.8862 17.6491 46.9898 18.2831L53.8602 61.9111L53.9271 61.8682L46.9982 17.8456L46.9982 17.8458ZM0.546619 61.7869L9.51368 2.85856C9.62292 2.12908 10.1745 1.55303 10.8831 1.42855C11.5917 1.30407 12.2985 1.65886 12.6383 2.30969L21.9933 20.2257L25.7224 12.9358C26.0112 12.3721 26.5805 12.0192 27.2009 12.0192C27.8213 12.0192 28.3906 12.3721 28.6794 12.9358L35.3619 25.9847L0.546227 61.7869H0.546619Z" fill="white" fill-opacity="0.2"/>
<path opacity="0.2" d="M29.5361 75.3719C28.0175 76.2424 26.1681 76.2424 24.6496 75.3719L0.525773 61.4868L0.467285 61.8685L24.6495 75.788C26.1681 76.6586 28.0175 76.6586 29.536 75.788L53.9271 61.8685L53.8645 61.474L29.5361 75.3721V75.3719Z" fill="#A52714"/>
</svg>
