<svg width="263" height="76" viewBox="0 0 263 76" fill="none" xmlns="http://www.w3.org/2000/svg">
<g clip-path="url(#clip0_35_72)">
<path d="M0.467285 60.8683L9.51371 1.43398C9.62429 0.705073 10.1764 0.130467 10.8848 0.00690951C11.5931 -0.116648 12.299 0.238825 12.6377 0.889373L21.9933 18.8054L25.7224 11.5154C26.0112 10.9518 26.5806 10.5988 27.2009 10.5988C27.8213 10.5988 28.3906 10.9518 28.6795 11.5154L53.9267 60.8682H0.467285V60.8683Z" fill="#FFA000"/>
<path d="M31.7203 37.7164L21.989 18.7969L0.467285 60.8683L31.7203 37.7164Z" fill="#F57C00"/>
<path d="M53.9271 60.8683L46.9982 16.8457C46.8935 16.2136 46.4541 15.6942 45.859 15.4985C45.2639 15.3027 44.6127 15.4657 44.1707 15.9189L0.467285 60.8677L24.6495 74.7915C26.1681 75.662 28.0175 75.662 29.536 74.7915L53.9271 60.8677V60.8683Z" fill="#FFCA28"/>
<path d="M46.9982 16.8457C46.8935 16.2136 46.4541 15.6942 45.859 15.4985C45.2639 15.3027 44.6126 15.4657 44.1707 15.9189L35.4966 24.8475L28.6757 11.5152C28.3869 10.9515 27.8175 10.5985 27.1971 10.5985C26.5768 10.5985 26.0075 10.9515 25.7186 11.5152L21.9895 18.8051L12.6335 0.889373C12.2942 0.238652 11.5875 -0.116245 10.8783 0.00823381C10.1691 0.132713 9.61883 0.708758 9.50948 1.43824L0.46727 60.8683H0.43811L0.46727 60.9027L0.705316 61.0227L44.1581 16.3569C44.5998 15.9012 45.2527 15.7374 45.8493 15.9325C46.446 16.1277 46.8862 16.6491 46.9898 17.2831L53.8602 60.9111L53.9271 60.8682L46.9982 16.8456L46.9982 16.8457ZM0.546619 60.7869L9.51368 1.85855C9.62292 1.12906 10.1745 0.553016 10.8831 0.428537C11.5917 0.304058 12.2985 0.65884 12.6383 1.30968L21.9933 19.2257L25.7224 11.9357C26.0112 11.3721 26.5805 11.0191 27.2009 11.0191C27.8213 11.0191 28.3906 11.3721 28.6794 11.9357L35.3619 24.9847L0.546227 60.7869H0.546619Z" fill="white" fill-opacity="0.2"/>
<path opacity="0.2" d="M29.5361 74.3719C28.0175 75.2424 26.1681 75.2424 24.6496 74.3719L0.525773 60.4868L0.467285 60.8685L24.6495 74.788C26.1681 75.6586 28.0175 75.6586 29.536 74.788L53.9271 60.8685L53.8645 60.474L29.5361 74.372V74.3719Z" fill="#A52714"/>
<path d="M46.929 16.8548C46.8247 16.2228 46.3867 15.7033 45.7938 15.5087C45.2008 15.3141 44.5518 15.4759 44.1113 15.929L35.4671 24.8532L28.6706 11.527C28.3827 10.9635 27.8154 10.6107 27.1972 10.6107C26.5791 10.6107 26.0118 10.9635 25.7239 11.527L22.0073 18.8137L12.6846 0.905435C12.3464 0.255002 11.6422 -0.0998376 10.9361 0.0246987C10.23 0.149235 9.68033 0.72482 9.57148 1.45413L0.560791 60.8581L24.6585 74.7716C26.1717 75.6417 28.0147 75.6417 29.528 74.7716L53.8337 60.8581L46.929 16.8547V16.8548Z" fill="url(#paint0_linear_35_72)"/>
</g>
<defs>
<clipPath id="clip0_35_72">
<rect width="263" height="76" fill="white"/>
</clipPath>
</defs>
</svg>
