<svg width="66" height="58" viewBox="0 0 66 58" fill="none" xmlns="http://www.w3.org/2000/svg">
<g clip-path="url(#clip0_10_16)">
<path d="M33 34.8103C36.2489 34.8103 38.8826 32.209 38.8826 29C38.8826 25.791 36.2489 23.1896 33 23.1896C29.7511 23.1896 27.1174 25.791 27.1174 29C27.1174 32.209 29.7511 34.8103 33 34.8103Z" fill="#310CC2"/>
<path d="M33 40.9042C50.433 40.9042 64.5652 35.5745 64.5652 29C64.5652 22.4255 50.433 17.0959 33 17.0959C15.567 17.0959 1.43478 22.4255 1.43478 29C1.43478 35.5745 15.567 40.9042 33 40.9042Z" stroke="#310CC2" stroke-width="3"/>
<path d="M22.5625 34.9521C31.279 49.864 43.0181 59.2877 48.7826 56.0005C54.5471 52.7133 52.154 37.9599 43.4375 23.0479C34.721 8.13598 22.9819 -1.28773 17.2174 1.99951C11.4529 5.28674 13.846 20.0401 22.5625 34.9521Z" stroke="#310CC2" stroke-width="3"/>
<path d="M22.5625 23.0479C13.846 37.9599 11.4529 52.7133 17.2174 56.0005C22.9819 59.2877 34.721 49.864 43.4375 34.9521C52.154 20.0401 54.5471 5.28674 48.7826 1.9995C43.0181 -1.28773 31.279 8.13597 22.5625 23.0479Z" stroke="#310CC2" stroke-width="3"/>
</g>
<defs>
<clipPath id="clip0_10_16">
<rect width="66" height="58" fill="white"/>
</clipPath>
</defs>
</svg>
