<svg width="47" height="71" viewBox="0 0 47 71" fill="none" xmlns="http://www.w3.org/2000/svg">
<g clip-path="url(#clip0_10_36)">
<path d="M11.7523 71C18.2371 71 23.5 65.6987 23.5 59.1667V47.3333H11.7523C5.26765 47.3333 0.00469971 52.6347 0.00469971 59.1667C0.00469971 65.6987 5.26765 71 11.7523 71Z" fill="#FCA311"/>
<path d="M0.00469971 35.5C0.00469971 28.968 5.26765 23.6667 11.7523 23.6667H23.5V47.3333H11.7523C5.26765 47.3333 0.00469971 42.032 0.00469971 35.5Z" fill="#FCA311"/>
<path d="M0.00488281 11.8333C0.00488281 5.30133 5.26783 0 11.7525 0H23.5002V23.6667H11.7525C5.26783 23.6667 0.00488281 18.3653 0.00488281 11.8333Z" fill="#FCA311"/>
<path d="M23.5 0H35.2477C41.7324 0 46.9953 5.30133 46.9953 11.8333C46.9953 18.3653 41.7324 23.6667 35.2477 23.6667H23.5V0Z" fill="#FCA311"/>
<path d="M46.9953 35.5C46.9953 42.032 41.7324 47.3333 35.2477 47.3333C28.7629 47.3333 23.5 42.032 23.5 35.5C23.5 28.968 28.7629 23.6667 35.2477 23.6667C41.7324 23.6667 46.9953 28.968 46.9953 35.5Z" fill="#FCA311"/>
</g>
<defs>
<clipPath id="clip0_10_36">
<rect width="47" height="71" fill="white"/>
</clipPath>
</defs>
</svg>
