<svg width="62" height="62" viewBox="0 0 62 62" fill="none" xmlns="http://www.w3.org/2000/svg">
<g clip-path="url(#clip0_10_24)">
<path d="M62 0H0V62H62V0Z" fill="#FCA311"/>
<path d="M41.6483 48.4377C42.8971 50.4768 44.5219 51.9757 47.3956 51.9757C49.8096 51.9757 51.3517 50.7691 51.3517 49.102C51.3517 47.1042 49.7673 46.3967 47.1102 45.2344L45.6536 44.6095C41.4495 42.8184 38.6565 40.5746 38.6565 35.8311C38.6565 31.4615 41.9858 28.1352 47.1889 28.1352C50.8931 28.1352 53.5562 29.4244 55.4752 32.8L50.9384 35.713C49.9395 33.9219 48.8619 33.2162 47.1889 33.2162C45.4824 33.2162 44.4009 34.2988 44.4009 35.713C44.4009 37.4608 45.4834 38.1684 47.9831 39.2509L49.4396 39.8748C54.3897 41.9976 57.1847 44.1617 57.1847 49.0272C57.1847 54.2726 53.0641 57.1463 47.5304 57.1463C42.1196 57.1463 38.624 54.5679 36.9136 51.1884L41.6483 48.4377ZM21.0672 48.9426C21.9824 50.5664 22.815 51.9393 24.8167 51.9393C26.7309 51.9393 27.9384 51.1903 27.9384 48.2783V28.4678H33.7644V48.357C33.7644 54.3897 30.2275 57.1354 25.0647 57.1354C20.4 57.1354 17.6985 54.7214 16.3247 51.8138L21.0672 48.9426Z" fill="white"/>
</g>
<defs>
<clipPath id="clip0_10_24">
<rect width="62" height="62" fill="white"/>
</clipPath>
</defs>
</svg>
