<svg width="65" height="65" viewBox="0 0 65 65" fill="none" xmlns="http://www.w3.org/2000/svg">
<g clip-path="url(#clip0_35_80)">
<path fill-rule="evenodd" clip-rule="evenodd" d="M50.3583 42.9024L13.2473 65L61.299 61.7303L65 13.1428L50.3583 42.9024Z" fill="#FFCA28"/>
<path fill-rule="evenodd" clip-rule="evenodd" d="M61.3778 61.697L57.2478 33.1119L45.998 48.0081L61.3778 61.697Z" fill="#FCA311"/>
<path fill-rule="evenodd" clip-rule="evenodd" d="M61.4335 61.697L31.1762 59.3152L13.4081 64.9378L61.4335 61.697Z" fill="#FFCA28"/>
<path fill-rule="evenodd" clip-rule="evenodd" d="M13.4508 64.9441L21.0095 40.1126L4.37646 43.6791L13.4508 64.9441Z" fill="#FCA311"/>
<path fill-rule="evenodd" clip-rule="evenodd" d="M45.9951 48.0904L39.0401 20.7718L19.1362 39.481L45.9951 48.0904Z" fill="#FCA311"/>
<path fill-rule="evenodd" clip-rule="evenodd" d="M63.4219 21.1567L44.6073 5.74729L39.368 22.7326L63.4219 21.1567Z" fill="#FFCA28"/>
<path fill-rule="evenodd" clip-rule="evenodd" d="M54.6233 0.253315L43.5576 6.38551L36.5763 0.17107L54.6233 0.253315Z" fill="url(#paint0_linear_35_80)"/>
<path fill-rule="evenodd" clip-rule="evenodd" d="M0 52.0086L4.63559 43.5307L0.885782 33.431L0 52.0086Z" fill="#FFA000"/>
<path fill-rule="evenodd" clip-rule="evenodd" d="M0.636475 33.1119L4.40925 43.8433L20.8028 40.155L39.519 22.7125L44.8009 5.88875L36.4841 0L22.3444 5.30646C17.8895 9.46148 9.24496 17.6827 8.9333 17.8373C8.62492 17.9952 3.22493 28.2298 0.636475 33.1119Z" fill="#FFCA28"/>
<path fill-rule="evenodd" clip-rule="evenodd" d="M13.8838 13.8336C23.5389 4.23398 35.9857 -1.43765 40.7624 3.39508C45.5361 8.22781 40.4737 19.9724 30.8187 29.5688C21.1636 39.1651 8.87096 45.1493 4.09758 40.3166C-0.679082 35.4871 4.22881 23.43 13.8838 13.8336V13.8336Z" fill="url(#paint1_linear_35_80)"/>
<path fill-rule="evenodd" clip-rule="evenodd" d="M13.4508 64.9342L20.9504 40.0238L45.8573 48.0476C36.8519 56.5156 26.836 63.6742 13.4508 64.9342Z" fill="#FCA311"/>
<path fill-rule="evenodd" clip-rule="evenodd" d="M39.5518 22.6635L45.9458 48.0608C53.4684 40.1291 60.22 31.6019 63.5266 21.0548L39.5518 22.6635V22.6635Z" fill="#FFCA28"/>
<path fill-rule="evenodd" clip-rule="evenodd" d="M63.4613 21.1831C66.0203 13.4389 66.6108 2.32918 54.5441 0.266474L44.6431 5.75058L63.4613 21.1831V21.1831Z" fill="#FFCA28"/>
<path fill-rule="evenodd" clip-rule="evenodd" d="M0 51.8967C0.354313 64.6779 9.55004 64.8684 13.4672 64.9806L4.41907 43.7906L0 51.8967Z" fill="#FCA311"/>
<path fill-rule="evenodd" clip-rule="evenodd" d="M39.5875 22.703C45.3681 26.2658 57.0181 33.4211 57.2543 33.5527C57.6214 33.76 62.277 25.6802 63.3334 21.114L39.5875 22.703V22.703Z" fill="#FFCA28"/>
<path fill-rule="evenodd" clip-rule="evenodd" d="M20.9406 40.0238L30.9663 59.4205C36.8945 56.1965 41.5366 52.2684 45.7884 48.0608L20.9406 40.0238Z" fill="#FFCA28"/>
<path fill-rule="evenodd" clip-rule="evenodd" d="M4.37976 43.8169L2.95923 60.7792C5.63954 64.4506 9.32702 64.7697 13.1949 64.4835C10.3965 57.4992 4.80625 43.534 4.37976 43.8169Z" fill="#FFCA28"/>
<path fill-rule="evenodd" clip-rule="evenodd" d="M44.5844 5.79335L64.5013 8.59626C63.4384 4.07936 60.1741 1.16459 54.6101 0.253315L44.5844 5.79335Z" fill="#FFCA28"/>
</g>
<defs>
<linearGradient id="paint0_linear_35_80" x1="39.0322" y1="3.79693" x2="52.0685" y2="-2.70313" gradientUnits="userSpaceOnUse">
<stop stop-color="#FFCA28"/>
</linearGradient>
<linearGradient id="paint1_linear_35_80" x1="-6.0875" y1="51.0264" x2="44.4381" y2="-0.783805" gradientUnits="userSpaceOnUse">
<stop stop-color="#FFCA28"/>
<stop offset="0.07" stop-color="white"/>
<stop offset="0.17" stop-color="#FFCA28"/>
<stop offset="0.27" stop-color="#FFCA28"/>
<stop offset="0.33" stop-color="#FFCA28"/>
<stop offset="0.46" stop-color="#FCA311"/>
<stop offset="0.72" stop-color="#FCA311"/>
<stop offset="0.99" stop-color="#FCA311"/>
<stop offset="1" stop-color="#FFCA28"/>
</linearGradient>
<clipPath id="clip0_35_80">
<rect width="65" height="65" fill="white"/>
</clipPath>
</defs>
</svg>
